<svg xmlns="http://www.w3.org/2000/svg" xmlns:xlink="http://www.w3.org/1999/xlink" viewBox="0 0 500 500"><defs><clipPath id="freepik--clip-path--inject-12"><polygon points="212.3 248.17 194.97 248.17 194.97 226.25 206.52 226.25 212.3 232.03 212.3 248.17" style="fill:#92E3A9;stroke:#263238;stroke-linecap:round;stroke-linejoin:round"></polygon></clipPath><clipPath id="freepik--clip-path-2--inject-12"><polygon points="212.3 293.17 194.97 293.17 194.97 271.25 206.52 271.25 212.3 277.03 212.3 293.17" style="fill:#92E3A9;stroke:#263238;stroke-linecap:round;stroke-linejoin:round"></polygon></clipPath><clipPath id="freepik--clip-path-3--inject-12"><polygon points="224.22 201.27 192.13 201.27 192.13 160.68 213.52 160.68 224.22 171.37 224.22 201.27" style="fill:#92E3A9;stroke:#263238;stroke-linecap:round;stroke-linejoin:round"></polygon></clipPath><clipPath id="freepik--clip-path-4--inject-12"><polygon points="212.3 338.18 194.97 338.18 194.97 316.26 206.52 316.26 212.3 322.03 212.3 338.18" style="fill:#92E3A9;stroke:#263238;stroke-linecap:round;stroke-linejoin:round"></polygon></clipPath><clipPath id="freepik--clip-path-5--inject-12"><polygon points="385.56 225.8 381.18 224.21 377 228.25 380.06 215.75 383.75 212.85 385.63 214.04 394.03 213.72 400.56 214.25 403.67 213.29 406.99 216.61 399.6 230.74 396.5 225.39 389.66 226.24 385.56 225.8" style="fill:#92E3A9;stroke:#263238;stroke-linecap:round;stroke-linejoin:round"></polygon></clipPath><clipPath id="freepik--clip-path-6--inject-12"><path d="M400.11,216.57l-1-15.28L389.45,203l-2,7.18-2,6.22-.95.1,2.63,14.28,13.94-14Z" style="fill:#858585;stroke:#263238;stroke-linecap:round;stroke-linejoin:round"></path></clipPath><clipPath id="freepik--clip-path-7--inject-12"><rect x="394.62" y="293.1" width="36.41" height="23.39" rx="1.77" transform="translate(54.84 -62.86) rotate(9.32)" style="fill:#92E3A9;stroke:#263238;stroke-linecap:round;stroke-linejoin:round"></rect></clipPath><clipPath id="freepik--clip-path-8--inject-12"><polygon points="121.94 214.79 123.76 223.76 103.54 224.61 107.05 199.75 120.67 201.33 121.94 214.79" style="fill:#fff;stroke:#263238;stroke-linecap:round;stroke-linejoin:round"></polygon></clipPath></defs><g id="freepik--background-simple--inject-12"><path d="M151.67,237.67c0,43.61-55.65,82.84-77.09,121.87-33.46,60.91,28.67,105.81,116.3,105.81,133.51,0,290.1-172.41,252.75-308.91C428.47,101.05,373.75,48.79,297.45,39.86,139,21.33,79.16,96.69,79.16,152.3,79.16,210,151.67,200.54,151.67,237.67Z" style="fill:#92E3A9"></path><path d="M151.67,237.67c0,43.61-55.65,82.84-77.09,121.87-33.46,60.91,28.67,105.81,116.3,105.81,133.51,0,290.1-172.41,252.75-308.91C428.47,101.05,373.75,48.79,297.45,39.86,139,21.33,79.16,96.69,79.16,152.3,79.16,210,151.67,200.54,151.67,237.67Z" style="fill:#fff;opacity:0.7000000000000001"></path></g><g id="freepik--Tasks--inject-12"><rect x="185.27" y="219.24" width="131.57" height="39.02" rx="6.86" style="fill:#263238;stroke:#263238;stroke-linecap:round;stroke-linejoin:round"></rect><rect x="183.17" y="217.14" width="131.57" height="39.02" rx="6.86" style="fill:#fff;stroke:#263238;stroke-linecap:round;stroke-linejoin:round"></rect><rect x="183.17" y="217.14" width="131.57" height="39.02" rx="6.86" style="fill:none;stroke:#263238;stroke-linecap:round;stroke-linejoin:round"></rect><polygon points="212.3 248.17 194.97 248.17 194.97 226.25 206.52 226.25 212.3 232.03 212.3 248.17" style="fill:#92E3A9"></polygon><g style="clip-path:url(#freepik--clip-path--inject-12)"><polygon points="212.3 248.17 194.97 248.17 194.97 226.25 206.52 226.25 212.3 232.03 212.3 248.17" style="fill:#fff;opacity:0.5"></polygon></g><polygon points="212.3 248.17 194.97 248.17 194.97 226.25 206.52 226.25 212.3 232.03 212.3 248.17" style="fill:none;stroke:#263238;stroke-linecap:round;stroke-linejoin:round"></polygon><polygon points="206.52 232.03 212.3 232.03 206.52 226.25 206.52 232.03" style="fill:#92E3A9;stroke:#263238;stroke-linecap:round;stroke-linejoin:round"></polygon><path d="M198.82,237.88a1.1,1.1,0,0,1,0-2.19h9.63a1.1,1.1,0,0,1,0,2.19Z" style="fill:#858585;stroke:#263238;stroke-linecap:round;stroke-linejoin:round;stroke-width:0.75px"></path><path d="M198.82,242.49a1.1,1.1,0,0,1,0-2.19h7.53a1.1,1.1,0,0,1,0,2.19Z" style="fill:#858585;stroke:#263238;stroke-linecap:round;stroke-linejoin:round;stroke-width:0.75px"></path><path d="M256.11,239.14H223.86a2.27,2.27,0,0,0,0,4.53h32.25Z" style="fill:#92E3A9"></path><path d="M223.86,243.67a2.27,2.27,0,0,1,0-4.53h76.8a2.27,2.27,0,1,1,0,4.53Z" style="fill:none;stroke:#263238;stroke-linecap:round;stroke-linejoin:round"></path><path d="M256.84,233h-2.43v-1.15l2.31-5.47h1.39v5.47h.6V233h-.6v1.47h-1.27Zm0-1.15V228.7h0l-1.25,3.16Z" style="fill:#263238"></path><path d="M259.3,232.56v-.63h1.2v.72c0,.58.25.79.66.79s.66-.21.66-.79v-1.81c0-.58-.26-.8-.66-.8s-.66.22-.66.8v.07h-1.2l.23-4.52h3.35v1.16h-2.22l-.1,1.93h0a1.2,1.2,0,0,1,1.1-.59c.93,0,1.41.66,1.41,1.85v1.82c0,1.3-.65,2-1.9,2S259.3,233.86,259.3,232.56Z" style="fill:#263238"></path><path d="M263.88,229.59v-2a1.23,1.23,0,1,1,2.45,0v2a1.23,1.23,0,1,1-2.45,0Zm1.64.06v-2.14c0-.35-.16-.5-.41-.5s-.42.15-.42.5v2.14c0,.36.15.51.42.51S265.52,230,265.52,229.65Zm2.52-3.26h.81l-3.13,8.09h-.81Zm-.61,6.91v-2a1.23,1.23,0,1,1,2.45,0v2a1.23,1.23,0,1,1-2.45,0Zm1.64.06v-2.14c0-.36-.16-.51-.42-.51s-.41.15-.41.51v2.14c0,.36.15.51.41.51S269.07,233.72,269.07,233.36Z" style="fill:#263238"></path><rect x="185.27" y="264.52" width="131.57" height="39.02" rx="6.86" style="fill:#263238;stroke:#263238;stroke-linecap:round;stroke-linejoin:round"></rect><rect x="183.17" y="262.42" width="131.57" height="39.02" rx="6.86" style="fill:#fff;stroke:#263238;stroke-linecap:round;stroke-linejoin:round"></rect><path d="M281.55,284.14H223.86a2.27,2.27,0,0,0,0,4.53h57.69Z" style="fill:#92E3A9"></path><path d="M223.86,288.67a2.27,2.27,0,0,1,0-4.53h76.8a2.27,2.27,0,1,1,0,4.53Z" style="fill:none;stroke:#263238;stroke-linecap:round;stroke-linejoin:round"></path><path d="M254.56,277.6v-.72a1.67,1.67,0,0,1,.83-1.65v0a1.6,1.6,0,0,1-.78-1.59v-.33a1.94,1.94,0,1,1,3.88,0v.33a1.63,1.63,0,0,1-.79,1.59v0a1.67,1.67,0,0,1,.84,1.65v.72a2,2,0,1,1-4,0Zm2.71-.07v-.78c0-.61-.25-.91-.72-.91s-.72.3-.72.91v.78c0,.61.25.91.72.91S257.27,278.14,257.27,277.53Zm0-3.65v-.64c0-.53-.23-.81-.67-.81s-.67.28-.67.81v.64c0,.53.23.81.67.81S257.22,274.41,257.22,273.88Z" style="fill:#263238"></path><path d="M259.3,277.56v-.63h1.2v.72c0,.58.25.79.66.79s.66-.21.66-.79v-1.81c0-.58-.26-.8-.66-.8s-.66.22-.66.8v.07h-1.2l.23-4.52h3.35v1.16h-2.22l-.1,1.93h0a1.2,1.2,0,0,1,1.1-.59c.93,0,1.41.66,1.41,1.85v1.82a1.9,1.9,0,1,1-3.79,0Z" style="fill:#263238"></path><path d="M263.88,274.59v-2a1.23,1.23,0,1,1,2.45,0v2a1.23,1.23,0,1,1-2.45,0Zm1.64.06v-2.14c0-.35-.16-.51-.41-.51s-.42.16-.42.51v2.14c0,.36.15.51.42.51S265.52,275,265.52,274.65Zm2.52-3.26h.81l-3.13,8.09h-.81Zm-.61,6.91v-2a1.23,1.23,0,1,1,2.45,0v2a1.23,1.23,0,1,1-2.45,0Zm1.64.06v-2.14c0-.36-.16-.51-.42-.51s-.41.15-.41.51v2.14c0,.36.15.51.41.51S269.07,278.72,269.07,278.36Z" style="fill:#263238"></path><polygon points="212.3 293.17 194.97 293.17 194.97 271.25 206.52 271.25 212.3 277.03 212.3 293.17" style="fill:#92E3A9"></polygon><g style="clip-path:url(#freepik--clip-path-2--inject-12)"><polygon points="212.3 293.17 194.97 293.17 194.97 271.25 206.52 271.25 212.3 277.03 212.3 293.17" style="fill:#fff;stroke:#263238;stroke-linecap:round;stroke-linejoin:round;opacity:0.5"></polygon></g><polygon points="212.3 293.17 194.97 293.17 194.97 271.25 206.52 271.25 212.3 277.03 212.3 293.17" style="fill:none;stroke:#263238;stroke-linecap:round;stroke-linejoin:round"></polygon><path d="M198.82,282.88a1.1,1.1,0,0,1,0-2.19h9.63a1.1,1.1,0,0,1,0,2.19Z" style="fill:#858585;stroke:#263238;stroke-linecap:round;stroke-linejoin:round;stroke-width:0.75px"></path><path d="M198.82,287.49a1.1,1.1,0,0,1,0-2.19h7.53a1.1,1.1,0,0,1,0,2.19Z" style="fill:#858585;stroke:#263238;stroke-linecap:round;stroke-linejoin:round;stroke-width:0.75px"></path><polygon points="206.52 277.03 212.3 277.03 206.52 271.25 206.52 277.03" style="fill:#92E3A9;stroke:#263238;stroke-linecap:round;stroke-linejoin:round"></polygon><rect x="169.15" y="158.78" width="163.8" height="48.59" rx="6.86" style="fill:#263238;stroke:#263238;stroke-linecap:round;stroke-linejoin:round"></rect><rect x="167.05" y="156.68" width="163.8" height="48.59" rx="6.86" style="fill:#fff;stroke:#263238;stroke-linecap:round;stroke-linejoin:round"></rect><polygon points="224.22 201.27 192.13 201.27 192.13 160.68 213.52 160.68 224.22 171.37 224.22 201.27" style="fill:#92E3A9"></polygon><g style="clip-path:url(#freepik--clip-path-3--inject-12)"><polygon points="224.22 201.27 192.13 201.27 192.13 160.68 213.52 160.68 224.22 171.37 224.22 201.27" style="fill:#fff;opacity:0.7000000000000001"></polygon></g><polygon points="224.22 201.27 192.13 201.27 192.13 160.68 213.52 160.68 224.22 171.37 224.22 201.27" style="fill:none;stroke:#263238;stroke-linecap:round;stroke-linejoin:round"></polygon><polygon points="213.52 171.37 224.22 171.37 213.52 160.68 213.52 171.37" style="fill:#92E3A9;stroke:#263238;stroke-linecap:round;stroke-linejoin:round"></polygon><rect x="195.3" y="176.37" width="6.3" height="6.3" style="fill:none;stroke:#fff;stroke-linecap:round;stroke-linejoin:round;stroke-width:0.75px"></rect><rect x="201.78" y="176.37" width="6.3" height="6.3" style="fill:none;stroke:#fff;stroke-linecap:round;stroke-linejoin:round;stroke-width:0.75px"></rect><rect x="208.27" y="176.37" width="6.3" height="6.3" style="fill:none;stroke:#fff;stroke-linecap:round;stroke-linejoin:round;stroke-width:0.75px"></rect><rect x="214.75" y="176.37" width="6.3" height="6.3" style="fill:none;stroke:#fff;stroke-linecap:round;stroke-linejoin:round;stroke-width:0.75px"></rect><rect x="195.3" y="182.67" width="6.3" height="6.3" style="fill:none;stroke:#fff;stroke-linecap:round;stroke-linejoin:round;stroke-width:0.75px"></rect><rect x="201.78" y="182.67" width="6.3" height="6.3" style="fill:none;stroke:#fff;stroke-linecap:round;stroke-linejoin:round;stroke-width:0.75px"></rect><rect x="208.27" y="182.67" width="6.3" height="6.3" style="fill:none;stroke:#fff;stroke-linecap:round;stroke-linejoin:round;stroke-width:0.75px"></rect><rect x="214.75" y="182.67" width="6.3" height="6.3" style="fill:none;stroke:#fff;stroke-linecap:round;stroke-linejoin:round;stroke-width:0.75px"></rect><rect x="195.3" y="188.97" width="6.3" height="6.3" style="fill:none;stroke:#fff;stroke-linecap:round;stroke-linejoin:round;stroke-width:0.75px"></rect><rect x="201.78" y="188.97" width="6.3" height="6.3" style="fill:none;stroke:#fff;stroke-linecap:round;stroke-linejoin:round;stroke-width:0.75px"></rect><rect x="208.27" y="188.97" width="6.3" height="6.3" style="fill:none;stroke:#fff;stroke-linecap:round;stroke-linejoin:round;stroke-width:0.75px"></rect><rect x="214.75" y="188.97" width="6.3" height="6.3" style="fill:none;stroke:#fff;stroke-linecap:round;stroke-linejoin:round;stroke-width:0.75px"></rect><polyline points="195.42 194.66 201.78 188.82 204.93 188.97 208.37 182.76 211.42 185.82 214.84 182.23 217.9 176.37" style="fill:none;stroke:#92E3A9;stroke-linecap:round;stroke-linejoin:round;stroke-width:2px"></polyline><polyline points="214.29 178.2 217.9 176.37 218.63 180.31" style="fill:none;stroke:#92E3A9;stroke-linecap:round;stroke-linejoin:round;stroke-width:2px"></polyline><path d="M236.84,179.68H235v-1.22c1.46,0,2-.32,2.38-1.39h1.16v11h-1.73Z" style="fill:#263238"></path><path d="M240.59,185.48v-5.8a2.63,2.63,0,1,1,5.26,0v5.8a2.63,2.63,0,1,1-5.26,0Zm3.53.11v-6c0-.78-.35-1.08-.9-1.08s-.9.3-.9,1.08v6c0,.79.35,1.09.9,1.09S244.12,186.38,244.12,185.59Z" style="fill:#263238"></path><path d="M246.89,185.48v-5.8a2.63,2.63,0,1,1,5.26,0v5.8a2.63,2.63,0,1,1-5.26,0Zm3.53.11v-6c0-.78-.35-1.08-.9-1.08s-.9.3-.9,1.08v6c0,.79.35,1.09.9,1.09S250.42,186.38,250.42,185.59Z" style="fill:#263238"></path><path d="M253.22,181.43v-2.75a1.67,1.67,0,1,1,3.34,0v2.75a1.67,1.67,0,1,1-3.34,0Zm2.24.08V178.6c0-.49-.22-.7-.57-.7s-.57.21-.57.7v2.91c0,.49.21.69.57.69S255.46,182,255.46,181.51Zm3.43-4.44H260l-4.27,11h-1.1Zm-.84,9.42v-2.76a1.67,1.67,0,1,1,3.34,0v2.76a1.67,1.67,0,1,1-3.34,0Zm2.24.08v-2.92c0-.49-.22-.69-.57-.69s-.56.2-.56.69v2.92c0,.48.2.69.56.69S260.29,187.05,260.29,186.57Z" style="fill:#263238"></path><path d="M264.19,184.65V180.3a1.87,1.87,0,1,1,3.74,0v.86h-1.2v-.94c0-.53-.26-.75-.64-.75s-.63.22-.63.75v4.52c0,.53.25.74.63.74s.64-.21.64-.74V183.5h1.2v1.15a1.87,1.87,0,1,1-3.74,0Z" style="fill:#263238"></path><path d="M268.62,184.6v-4.25a1.93,1.93,0,1,1,3.86,0v4.25a1.93,1.93,0,1,1-3.86,0Zm2.59.08v-4.41c0-.58-.25-.8-.66-.8s-.66.22-.66.8v4.41c0,.58.26.8.66.8S271.21,185.26,271.21,184.68Z" style="fill:#263238"></path><path d="M273.33,178.43h1.82l.81,5.79h0l.81-5.79h1.81v8.09h-1.2V180.4h0l-.93,6.12h-1.06l-.92-6.12h0v6.12h-1.11Z" style="fill:#263238"></path><path d="M279.55,178.43h1.87c1.27,0,1.89.71,1.89,2v.8c0,1.29-.62,2-1.89,2h-.6v3.29h-1.27Zm1.87,3.64c.4,0,.62-.18.62-.76v-1c0-.58-.22-.76-.62-.76h-.6v2.48Z" style="fill:#263238"></path><path d="M284,178.43h1.27v6.93h2.09v1.16H284Z" style="fill:#263238"></path><path d="M288,178.43h3.46v1.16h-2.19v2.13H291v1.16h-1.74v2.48h2.19v1.16H288Z" style="fill:#263238"></path><path d="M293.16,179.59h-1.32v-1.16h3.92v1.16h-1.33v6.93h-1.27Z" style="fill:#263238"></path><path d="M296.38,178.43h3.46v1.16h-2.19v2.13h1.74v1.16h-1.74v2.48h2.19v1.16h-3.46Z" style="fill:#263238"></path><path d="M300.57,178.43h1.94c1.27,0,1.89.71,1.89,2v4.09c0,1.29-.62,2-1.89,2h-1.94Zm1.91,6.93c.41,0,.65-.21.65-.78v-4.21c0-.57-.24-.78-.65-.78h-.64v5.77Z" style="fill:#263238"></path><rect x="185.27" y="309.81" width="131.57" height="39.02" rx="6.86" style="fill:#263238;stroke:#263238;stroke-linecap:round;stroke-linejoin:round"></rect><rect x="183.17" y="307.71" width="131.57" height="39.02" rx="6.86" style="fill:#fff;stroke:#263238;stroke-linecap:round;stroke-linejoin:round"></rect><path d="M277.48,329.15H223.86a2.26,2.26,0,0,0,0,4.52h53.62Z" style="fill:#92E3A9"></path><path d="M223.86,333.67a2.26,2.26,0,0,1,0-4.52h76.8a2.26,2.26,0,1,1,0,4.52Z" style="fill:none;stroke:#263238;stroke-linecap:round;stroke-linejoin:round"></path><polygon points="212.3 338.18 194.97 338.18 194.97 316.26 206.52 316.26 212.3 322.03 212.3 338.18" style="fill:#92E3A9"></polygon><g style="clip-path:url(#freepik--clip-path-4--inject-12)"><polygon points="212.3 338.18 194.97 338.18 194.97 316.26 206.52 316.26 212.3 322.03 212.3 338.18" style="fill:#fff;opacity:0.5"></polygon></g><polygon points="212.3 338.18 194.97 338.18 194.97 316.26 206.52 316.26 212.3 322.03 212.3 338.18" style="fill:none;stroke:#263238;stroke-linecap:round;stroke-linejoin:round"></polygon><path d="M198.82,327.89a1.1,1.1,0,0,1,0-2.19h9.63a1.1,1.1,0,0,1,0,2.19Z" style="fill:#858585;stroke:#263238;stroke-linecap:round;stroke-linejoin:round;stroke-width:0.75px"></path><path d="M198.82,332.49a1.09,1.09,0,1,1,0-2.18h7.53a1.09,1.09,0,1,1,0,2.18Z" style="fill:#858585;stroke:#263238;stroke-linecap:round;stroke-linejoin:round;stroke-width:0.75px"></path><polygon points="206.52 322.03 212.3 322.03 206.52 316.26 206.52 322.03" style="fill:#92E3A9;stroke:#263238;stroke-linecap:round;stroke-linejoin:round"></polygon><path d="M257.2,317.55h-2.57V316.4h3.81v1.11l-2,7h-1.3Z" style="fill:#263238"></path><path d="M259.24,322.57v-4.25a1.93,1.93,0,1,1,3.86,0v4.25a1.93,1.93,0,1,1-3.86,0Zm2.59.08v-4.41c0-.58-.26-.8-.66-.8s-.66.22-.66.8v4.41c0,.58.26.79.66.79S261.83,323.23,261.83,322.65Z" style="fill:#263238"></path><path d="M263.88,319.6v-2a1.23,1.23,0,1,1,2.45,0v2a1.23,1.23,0,1,1-2.45,0Zm1.64.06v-2.14c0-.36-.16-.51-.41-.51s-.42.15-.42.51v2.14c0,.35.15.5.42.5S265.52,320,265.52,319.66ZM268,316.4h.81l-3.13,8.08h-.81Zm-.61,6.91v-2a1.23,1.23,0,1,1,2.45,0v2a1.23,1.23,0,1,1-2.45,0Zm1.64.05v-2.13c0-.36-.16-.51-.42-.51s-.41.15-.41.51v2.13c0,.36.15.51.41.51S269.07,323.72,269.07,323.36Z" style="fill:#263238"></path></g></svg>