<svg width="1920" height="1080" viewBox="0 0 1920 1080" fill="none" xmlns="http://www.w3.org/2000/svg">
<path d="M948.599 280.943C948.599 280.943 944.43 302.36 944.021 302.442H945.492C941.16 302.85 936.909 303.504 932.659 304.403L933.803 304.076C933.394 304.158 923.013 284.948 923.013 284.948L900.861 291.897C900.861 291.897 903.231 313.64 902.904 313.804L904.294 313.395C900.289 315.112 896.283 317.074 892.441 319.199L893.586 318.463C893.259 318.627 877.564 303.422 877.564 303.422L858.518 316.665C858.518 316.665 867.264 336.692 867.019 336.937L868.327 336.038C864.975 338.899 861.706 342.005 858.681 345.193L859.58 344.049C859.335 344.376 839.799 334.567 839.799 334.567L825.575 352.877C825.575 352.877 839.962 369.307 839.717 369.716L840.698 368.49C838.327 372.332 836.12 376.174 834.158 380.179L834.731 378.708C834.567 379.035 812.987 375.52 812.987 375.52L804.894 397.264C804.894 397.264 823.532 408.708 823.45 409.035L824.022 407.563C822.878 411.896 821.979 416.31 821.325 420.806L821.406 419.252C821.325 419.661 799.744 422.767 799.744 422.767L798.518 445.901C798.518 445.901 819.69 451.214 819.69 451.623V451.214C820.017 455.955 820.507 460.778 821.325 465.437L803.178 473.53L808.082 494.047C827.782 558.298 889.825 602.521 960.451 602.602C1031.08 602.521 1093.12 558.298 1112.82 494.047L1117.73 473.53L1099.5 465.356C1100.31 460.288 1100.89 455.138 1101.13 449.988L1101.21 451.541C1101.21 451.132 1122.38 445.819 1122.38 445.819L1120.91 422.522C1120.91 422.522 1099.25 419.416 1099.25 419.007V419.334C1098.6 415.492 1097.78 411.65 1096.72 407.89L1097.13 408.871C1097.04 408.462 1115.68 397.1 1115.68 397.1L1107.59 375.356C1107.59 375.356 1086.01 378.871 1085.85 378.544C1084.13 375.193 1082.25 371.923 1080.21 368.735L1080.78 369.471C1080.53 369.144 1094.92 352.632 1094.92 352.632L1080.7 334.321C1080.7 334.321 1061.16 344.131 1060.91 343.804L1061 343.967C1058.3 341.269 1055.52 338.654 1052.66 336.201L1053.39 336.692C1053.07 336.447 1061.89 316.42 1061.89 316.42L1042.85 303.177C1042.85 303.177 1027.15 318.381 1026.83 318.218L1027.07 318.381C1023.72 316.583 1020.29 314.948 1016.85 313.395L1017.51 313.64C1017.1 313.477 1019.55 291.733 1019.55 291.733L997.399 284.785C997.399 284.785 987.018 303.995 986.609 303.913L987.018 304.076C983.258 303.341 979.498 302.768 975.737 302.36H976.31C975.901 302.278 971.732 280.861 971.732 280.861L948.599 280.943Z" fill="#1CB14D"/>
<path d="M926.119 383.2C925.874 418.513 949.661 440.175 959.716 446.061C969.852 440.257 993.557 418.513 993.312 383.2C993.067 347.887 969.77 326.225 959.716 320.34C949.661 326.225 926.365 347.887 926.119 383.2Z" fill="#FDC14F"/>
<path d="M818.382 497.802C822.55 508.592 827.946 518.81 834.403 528.292C893.34 492.488 978.68 550.935 1080.61 535.649C1087.89 526.248 1094.1 515.867 1099.01 504.913C952.767 555.267 878.136 474.505 818.382 497.802Z" fill="#FDC14F"/>
<path d="M845.929 543.09C852.387 550.447 859.58 557.15 867.346 563.199C957.59 514.807 994.865 555.678 1043.34 570.065C1052.41 564.098 1060.83 557.231 1068.52 549.466C991.268 560.583 932.985 503.036 845.929 543.09Z" fill="#FDC14F"/>
<path d="M948.844 552.08C926.038 552.08 903.313 559.6 884.594 574.723C906.828 587.475 932.659 594.832 960.206 594.832C981.95 594.832 1002.63 590.254 1021.27 582.08C1001.24 562.053 975.002 552.08 948.844 552.08Z" fill="#FDC14F"/>
<path d="M971.241 503.365H949.17V597.452H971.241V503.365Z" fill="#1CB14D"/>
<path d="M872.006 402.982C871.188 402.982 870.452 403.064 869.799 403.064C866.529 413.118 864.158 442.709 885.984 470.502C888.027 473.036 890.071 475.406 892.196 477.613C906.419 493.39 928.327 504.016 953.258 505.733V594.669C955.547 594.751 957.836 594.833 960.125 594.833C962.413 594.833 964.702 594.751 966.991 594.669V505.651C991.923 504.016 1013.75 493.39 1027.97 477.613C1030.1 475.406 1032.22 473.036 1034.27 470.42C1056.09 442.709 1053.72 413.036 1050.45 402.982C1049.8 402.9 1049.06 402.9 1048.24 402.9C1036.23 402.737 1009.09 408.132 988.326 433.881C970.67 455.788 968.871 479.248 970.506 492.981C967.89 495.76 964.212 497.477 960.125 497.477C956.038 497.477 952.359 495.76 949.743 492.981C951.378 479.33 949.58 455.87 931.923 433.881C911.161 408.213 884.022 402.737 872.006 402.982Z" fill="#FDC14F"/>
<path d="M414.237 672.809H453.19V768.048H514.121V799.139H414.237V672.809Z" fill="#1CB14D"/>
<path d="M609.896 778.233H565.403L559.328 799.139H519.481L567.012 672.809H609.538L657.069 799.139H616.15C615.971 799.139 609.896 778.233 609.896 778.233ZM601.676 750.894L587.739 705.508L573.802 750.894H601.676Z" fill="#1CB14D"/>
<path d="M669.577 672.809H706.029L753.559 742.674V672.809H790.368V799.139H753.559L706.207 729.809V799.139H669.577V672.809Z" fill="#1CB14D"/>
<path d="M816.991 672.809H875.064C886.5 672.809 895.791 674.417 902.76 677.454C909.907 680.492 915.625 684.959 920.271 690.856C924.917 696.752 928.133 703.364 930.278 711.047C932.422 718.731 933.315 726.95 933.315 735.527C933.315 749.107 931.707 759.471 928.669 766.975C925.632 774.301 921.343 780.555 915.983 785.737C910.444 790.74 904.726 794.136 898.472 795.744C889.895 798.067 882.211 799.139 875.243 799.139H817.17V672.809H816.991ZM855.945 701.398V770.37H865.594C873.813 770.37 879.531 769.477 882.926 767.69C886.321 765.903 889.001 762.687 890.967 758.22C892.932 753.753 893.826 746.427 893.826 736.242C893.826 722.84 891.682 713.727 887.215 708.724C882.926 703.721 875.6 701.398 865.415 701.398H855.945V701.398Z" fill="#1CB14D"/>
<path d="M953.685 672.809H1026.77C1038.92 672.809 1048.21 675.846 1054.82 681.922C1061.43 687.997 1064.65 695.502 1064.65 704.257C1064.65 711.762 1062.33 718.195 1057.68 723.555C1054.64 727.129 1050 729.988 1044.1 731.953C1053.21 734.097 1059.82 737.85 1064.11 743.21C1068.4 748.571 1070.55 755.182 1070.55 763.223C1070.55 769.834 1068.94 775.731 1065.9 780.913C1062.86 786.095 1058.75 790.204 1053.39 793.242C1050.18 795.208 1045.17 796.458 1038.56 797.352C1029.8 798.424 1023.91 799.139 1021.05 799.139H953.685C953.685 799.139 953.685 672.809 953.685 672.809ZM992.996 722.304H1009.97C1016.05 722.304 1020.33 721.232 1022.66 719.267C1025.16 717.122 1026.23 714.085 1026.23 710.154C1026.23 706.401 1024.98 703.542 1022.66 701.577C1020.33 699.433 1016.22 698.539 1010.33 698.539H993.175L992.996 722.304ZM992.996 771.979H1013.01C1019.8 771.979 1024.44 770.728 1027.3 768.405C1029.98 765.903 1031.41 762.687 1031.41 758.756C1031.41 755.004 1029.98 751.966 1027.3 749.822C1024.62 747.499 1019.8 746.427 1013.01 746.427H993.175L992.996 771.979Z" fill="#1CB14D"/>
<path d="M1165.43 778.233H1120.93L1114.86 799.139H1075.01L1122.54 672.809H1164.89L1212.42 799.139H1171.5L1165.43 778.233ZM1157.21 750.894L1143.27 705.508L1129.33 750.894H1157.21Z" fill="#1CB14D"/>
<path d="M1225.11 672.809H1261.56L1309.09 742.674V672.809H1345.9V799.139H1309.09L1261.74 729.809V799.139H1225.11V672.809Z" fill="#1CB14D"/>
<path d="M1372.17 672.809H1411.12V720.517L1452.04 672.809H1503.86L1457.93 720.339L1506 798.96H1457.93L1431.31 746.963L1411.3 768.226V799.139H1372.17V672.809Z" fill="#1CB14D"/>
</svg>
